<mxfile host="65bd71144e" scale="4" border="0">
    <diagram id="FWAlGNCw6BGj7KkhiCSa" name="Page-1">
        <mxGraphModel dx="823" dy="1469" grid="1" gridSize="10" guides="1" tooltips="1" connect="1" arrows="1" fold="1" page="1" pageScale="1" pageWidth="583" pageHeight="827" math="0" shadow="0">
            <root>
                <mxCell id="0"/>
                <mxCell id="1" parent="0"/>
                <mxCell id="144" value="" style="shape=ext;double=1;rounded=1;whiteSpace=wrap;html=1;strokeColor=#000000;strokeWidth=1;verticalAlign=middle;opacity=40;" parent="1" vertex="1">
                    <mxGeometry x="160" y="-60" width="600" height="270" as="geometry"/>
                </mxCell>
                <mxCell id="10" value="Maillon" style="swimlane;fontStyle=0;childLayout=stackLayout;horizontal=1;startSize=26;horizontalStack=0;resizeParent=1;resizeParentMax=0;resizeLast=0;collapsible=1;marginBottom=0;fillColor=#dae8fc;strokeColor=#6c8ebf;" parent="1" vertex="1">
                    <mxGeometry x="280" y="110" width="80" height="82" as="geometry"/>
                </mxCell>
                <mxCell id="11" value="valeur" style="text;strokeColor=none;fillColor=none;align=left;verticalAlign=top;spacingLeft=4;spacingRight=4;overflow=hidden;rotatable=0;points=[[0,0.5],[1,0.5]];portConstraint=eastwest;" parent="10" vertex="1">
                    <mxGeometry y="26" width="80" height="26" as="geometry"/>
                </mxCell>
                <mxCell id="12" value="suivant" style="text;strokeColor=none;fillColor=none;align=left;verticalAlign=top;spacingLeft=4;spacingRight=4;overflow=hidden;rotatable=0;points=[[0,0.5],[1,0.5]];portConstraint=eastwest;" parent="10" vertex="1">
                    <mxGeometry y="52" width="80" height="30" as="geometry"/>
                </mxCell>
                <mxCell id="16" value="Maillon" style="swimlane;fontStyle=0;childLayout=stackLayout;horizontal=1;startSize=26;horizontalStack=0;resizeParent=1;resizeParentMax=0;resizeLast=0;collapsible=1;marginBottom=0;fillColor=#dae8fc;strokeColor=#6c8ebf;" parent="1" vertex="1">
                    <mxGeometry x="400" y="110" width="80" height="82" as="geometry"/>
                </mxCell>
                <mxCell id="17" value="valeur" style="text;strokeColor=none;fillColor=none;align=left;verticalAlign=top;spacingLeft=4;spacingRight=4;overflow=hidden;rotatable=0;points=[[0,0.5],[1,0.5]];portConstraint=eastwest;" parent="16" vertex="1">
                    <mxGeometry y="26" width="80" height="26" as="geometry"/>
                </mxCell>
                <mxCell id="18" value="suivant" style="text;strokeColor=none;fillColor=none;align=left;verticalAlign=top;spacingLeft=4;spacingRight=4;overflow=hidden;rotatable=0;points=[[0,0.5],[1,0.5]];portConstraint=eastwest;" parent="16" vertex="1">
                    <mxGeometry y="52" width="80" height="30" as="geometry"/>
                </mxCell>
                <mxCell id="24" style="edgeStyle=orthogonalEdgeStyle;html=1;exitX=1;exitY=0.5;exitDx=0;exitDy=0;entryX=0.5;entryY=0;entryDx=0;entryDy=0;startArrow=oval;startFill=1;startSize=9;endSize=8;endArrow=none;endFill=0;dashed=1;fillColor=#dae8fc;strokeColor=#6c8ebf;" parent="1" edge="1">
                    <mxGeometry relative="1" as="geometry">
                        <mxPoint x="480" y="177" as="sourcePoint"/>
                        <mxPoint x="560" y="110" as="targetPoint"/>
                        <Array as="points">
                            <mxPoint x="500" y="177"/>
                            <mxPoint x="500" y="70"/>
                            <mxPoint x="560" y="70"/>
                        </Array>
                    </mxGeometry>
                </mxCell>
                <mxCell id="25" style="edgeStyle=orthogonalEdgeStyle;html=1;exitX=1;exitY=0.5;exitDx=0;exitDy=0;entryX=0.5;entryY=0;entryDx=0;entryDy=0;startArrow=none;startFill=0;startSize=9;endSize=8;fillColor=#dae8fc;strokeColor=#6c8ebf;" parent="1" edge="1">
                    <mxGeometry relative="1" as="geometry">
                        <mxPoint x="360" y="177" as="sourcePoint"/>
                        <mxPoint x="440" y="110" as="targetPoint"/>
                        <Array as="points">
                            <mxPoint x="380" y="177"/>
                            <mxPoint x="380" y="70"/>
                            <mxPoint x="440" y="70"/>
                        </Array>
                    </mxGeometry>
                </mxCell>
                <mxCell id="26" value="File" style="swimlane;fontStyle=0;childLayout=stackLayout;horizontal=1;startSize=26;horizontalStack=0;resizeParent=1;resizeParentMax=0;resizeLast=0;collapsible=1;marginBottom=0;fillColor=#e1d5e7;strokeColor=#9673a6;" parent="1" vertex="1">
                    <mxGeometry x="200" y="-40" width="80" height="78" as="geometry"/>
                </mxCell>
                <mxCell id="153" value="queue" style="text;strokeColor=none;fillColor=none;align=left;verticalAlign=top;spacingLeft=4;spacingRight=4;overflow=hidden;rotatable=0;points=[[0,0.5],[1,0.5]];portConstraint=eastwest;" parent="26" vertex="1">
                    <mxGeometry y="26" width="80" height="26" as="geometry"/>
                </mxCell>
                <mxCell id="27" value="tete" style="text;strokeColor=none;fillColor=none;align=left;verticalAlign=top;spacingLeft=4;spacingRight=4;overflow=hidden;rotatable=0;points=[[0,0.5],[1,0.5]];portConstraint=eastwest;" parent="26" vertex="1">
                    <mxGeometry y="52" width="80" height="26" as="geometry"/>
                </mxCell>
                <mxCell id="80" value="" style="swimlane;fontStyle=0;childLayout=stackLayout;horizontal=1;startSize=26;horizontalStack=0;resizeParent=1;resizeParentMax=0;resizeLast=0;collapsible=1;marginBottom=0;fillColor=#dae8fc;strokeColor=#6c8ebf;dashed=1;dashPattern=1 1;opacity=40;" parent="1" vertex="1">
                    <mxGeometry x="520" y="110" width="80" height="82" as="geometry"/>
                </mxCell>
                <mxCell id="81" value=" " style="text;strokeColor=none;fillColor=none;align=left;verticalAlign=top;spacingLeft=4;spacingRight=4;overflow=hidden;rotatable=0;points=[[0,0.5],[1,0.5]];portConstraint=eastwest;" parent="80" vertex="1">
                    <mxGeometry y="26" width="80" height="26" as="geometry"/>
                </mxCell>
                <mxCell id="82" value=" " style="text;strokeColor=none;fillColor=none;align=left;verticalAlign=top;spacingLeft=4;spacingRight=4;overflow=hidden;rotatable=0;points=[[0,0.5],[1,0.5]];portConstraint=eastwest;" parent="80" vertex="1">
                    <mxGeometry y="52" width="80" height="30" as="geometry"/>
                </mxCell>
                <mxCell id="149" value="Maillon" style="swimlane;fontStyle=0;childLayout=stackLayout;horizontal=1;startSize=26;horizontalStack=0;resizeParent=1;resizeParentMax=0;resizeLast=0;collapsible=1;marginBottom=0;fillColor=#dae8fc;strokeColor=#6c8ebf;" parent="1" vertex="1">
                    <mxGeometry x="640" y="110" width="80" height="82" as="geometry"/>
                </mxCell>
                <mxCell id="150" value="valeur" style="text;strokeColor=none;fillColor=none;align=left;verticalAlign=top;spacingLeft=4;spacingRight=4;overflow=hidden;rotatable=0;points=[[0,0.5],[1,0.5]];portConstraint=eastwest;" parent="149" vertex="1">
                    <mxGeometry y="26" width="80" height="26" as="geometry"/>
                </mxCell>
                <mxCell id="151" value="suivant" style="text;strokeColor=none;fillColor=none;align=left;verticalAlign=top;spacingLeft=4;spacingRight=4;overflow=hidden;rotatable=0;points=[[0,0.5],[1,0.5]];portConstraint=eastwest;" parent="149" vertex="1">
                    <mxGeometry y="52" width="80" height="30" as="geometry"/>
                </mxCell>
                <mxCell id="152" style="edgeStyle=orthogonalEdgeStyle;html=1;exitX=1;exitY=0.5;exitDx=0;exitDy=0;entryX=0.5;entryY=0;entryDx=0;entryDy=0;startArrow=oval;startFill=1;startSize=9;endSize=8;fillColor=#dae8fc;strokeColor=#6c8ebf;" parent="1" edge="1">
                    <mxGeometry relative="1" as="geometry">
                        <mxPoint x="600" y="176.97000000000003" as="sourcePoint"/>
                        <mxPoint x="680" y="109.97000000000014" as="targetPoint"/>
                        <Array as="points">
                            <mxPoint x="620" y="176.97000000000003"/>
                            <mxPoint x="620" y="69.97000000000003"/>
                            <mxPoint x="680" y="69.97000000000003"/>
                        </Array>
                    </mxGeometry>
                </mxCell>
                <mxCell id="155" style="edgeStyle=orthogonalEdgeStyle;html=1;exitX=1;exitY=0.5;exitDx=0;exitDy=0;startArrow=oval;startFill=1;startSize=9;endSize=8;fillColor=#e1d5e7;strokeColor=#9673a6;" parent="1" edge="1">
                    <mxGeometry relative="1" as="geometry">
                        <Array as="points">
                            <mxPoint x="320" y="27"/>
                        </Array>
                        <mxPoint x="279.97000000000014" y="27" as="sourcePoint"/>
                        <mxPoint x="320" y="110" as="targetPoint"/>
                    </mxGeometry>
                </mxCell>
                <mxCell id="156" style="edgeStyle=orthogonalEdgeStyle;html=1;exitX=1;exitY=0.5;exitDx=0;exitDy=0;startArrow=oval;startFill=1;startSize=9;endSize=8;fillColor=#e1d5e7;strokeColor=#9673a6;strokeWidth=1;" parent="1" edge="1">
                    <mxGeometry relative="1" as="geometry">
                        <Array as="points">
                            <mxPoint x="680"/>
                        </Array>
                        <mxPoint x="280" as="sourcePoint"/>
                        <mxPoint x="680" y="110" as="targetPoint"/>
                    </mxGeometry>
                </mxCell>
                <mxCell id="195" value="" style="shape=ext;double=1;rounded=1;whiteSpace=wrap;html=1;strokeColor=#000000;strokeWidth=1;verticalAlign=middle;opacity=40;" vertex="1" parent="1">
                    <mxGeometry x="160" y="220" width="600" height="270" as="geometry"/>
                </mxCell>
                <mxCell id="196" value="Maillon" style="swimlane;fontStyle=0;childLayout=stackLayout;horizontal=1;startSize=26;horizontalStack=0;resizeParent=1;resizeParentMax=0;resizeLast=0;collapsible=1;marginBottom=0;fillColor=#dae8fc;strokeColor=#6c8ebf;" vertex="1" parent="1">
                    <mxGeometry x="280" y="390" width="80" height="82" as="geometry"/>
                </mxCell>
                <mxCell id="197" value="valeur" style="text;strokeColor=none;fillColor=none;align=left;verticalAlign=top;spacingLeft=4;spacingRight=4;overflow=hidden;rotatable=0;points=[[0,0.5],[1,0.5]];portConstraint=eastwest;" vertex="1" parent="196">
                    <mxGeometry y="26" width="80" height="26" as="geometry"/>
                </mxCell>
                <mxCell id="198" value="suivant" style="text;strokeColor=none;fillColor=none;align=left;verticalAlign=top;spacingLeft=4;spacingRight=4;overflow=hidden;rotatable=0;points=[[0,0.5],[1,0.5]];portConstraint=eastwest;" vertex="1" parent="196">
                    <mxGeometry y="52" width="80" height="30" as="geometry"/>
                </mxCell>
                <mxCell id="199" value="Maillon" style="swimlane;fontStyle=0;childLayout=stackLayout;horizontal=1;startSize=26;horizontalStack=0;resizeParent=1;resizeParentMax=0;resizeLast=0;collapsible=1;marginBottom=0;fillColor=#dae8fc;strokeColor=#6c8ebf;" vertex="1" parent="1">
                    <mxGeometry x="400" y="390" width="80" height="82" as="geometry"/>
                </mxCell>
                <mxCell id="200" value="valeur" style="text;strokeColor=none;fillColor=none;align=left;verticalAlign=top;spacingLeft=4;spacingRight=4;overflow=hidden;rotatable=0;points=[[0,0.5],[1,0.5]];portConstraint=eastwest;" vertex="1" parent="199">
                    <mxGeometry y="26" width="80" height="26" as="geometry"/>
                </mxCell>
                <mxCell id="201" value="suivant" style="text;strokeColor=none;fillColor=none;align=left;verticalAlign=top;spacingLeft=4;spacingRight=4;overflow=hidden;rotatable=0;points=[[0,0.5],[1,0.5]];portConstraint=eastwest;" vertex="1" parent="199">
                    <mxGeometry y="52" width="80" height="30" as="geometry"/>
                </mxCell>
                <mxCell id="202" style="edgeStyle=orthogonalEdgeStyle;html=1;exitX=1;exitY=0.5;exitDx=0;exitDy=0;entryX=0.5;entryY=0;entryDx=0;entryDy=0;startArrow=oval;startFill=1;startSize=9;endSize=8;endArrow=none;endFill=0;dashed=1;fillColor=#dae8fc;strokeColor=#6c8ebf;" edge="1" parent="1">
                    <mxGeometry relative="1" as="geometry">
                        <mxPoint x="480" y="457" as="sourcePoint"/>
                        <mxPoint x="560" y="390" as="targetPoint"/>
                        <Array as="points">
                            <mxPoint x="500" y="457"/>
                            <mxPoint x="500" y="350"/>
                            <mxPoint x="560" y="350"/>
                        </Array>
                    </mxGeometry>
                </mxCell>
                <mxCell id="203" style="edgeStyle=orthogonalEdgeStyle;html=1;exitX=1;exitY=0.5;exitDx=0;exitDy=0;entryX=0.5;entryY=0;entryDx=0;entryDy=0;startArrow=none;startFill=0;startSize=9;endSize=8;fillColor=#dae8fc;strokeColor=#6c8ebf;" edge="1" parent="1">
                    <mxGeometry relative="1" as="geometry">
                        <mxPoint x="360" y="457" as="sourcePoint"/>
                        <mxPoint x="440" y="390" as="targetPoint"/>
                        <Array as="points">
                            <mxPoint x="380" y="457"/>
                            <mxPoint x="380" y="350"/>
                            <mxPoint x="440" y="350"/>
                        </Array>
                    </mxGeometry>
                </mxCell>
                <mxCell id="204" value="File" style="swimlane;fontStyle=0;childLayout=stackLayout;horizontal=1;startSize=26;horizontalStack=0;resizeParent=1;resizeParentMax=0;resizeLast=0;collapsible=1;marginBottom=0;fillColor=#e1d5e7;strokeColor=#9673a6;" vertex="1" parent="1">
                    <mxGeometry x="200" y="240" width="80" height="78" as="geometry"/>
                </mxCell>
                <mxCell id="205" value="queue" style="text;strokeColor=none;fillColor=none;align=left;verticalAlign=top;spacingLeft=4;spacingRight=4;overflow=hidden;rotatable=0;points=[[0,0.5],[1,0.5]];portConstraint=eastwest;" vertex="1" parent="204">
                    <mxGeometry y="26" width="80" height="26" as="geometry"/>
                </mxCell>
                <mxCell id="206" value="tete" style="text;strokeColor=none;fillColor=none;align=left;verticalAlign=top;spacingLeft=4;spacingRight=4;overflow=hidden;rotatable=0;points=[[0,0.5],[1,0.5]];portConstraint=eastwest;" vertex="1" parent="204">
                    <mxGeometry y="52" width="80" height="26" as="geometry"/>
                </mxCell>
                <mxCell id="207" value="" style="swimlane;fontStyle=0;childLayout=stackLayout;horizontal=1;startSize=26;horizontalStack=0;resizeParent=1;resizeParentMax=0;resizeLast=0;collapsible=1;marginBottom=0;fillColor=#dae8fc;strokeColor=#6c8ebf;dashed=1;dashPattern=1 1;opacity=40;" vertex="1" parent="1">
                    <mxGeometry x="520" y="390" width="80" height="82" as="geometry"/>
                </mxCell>
                <mxCell id="208" value=" " style="text;strokeColor=none;fillColor=none;align=left;verticalAlign=top;spacingLeft=4;spacingRight=4;overflow=hidden;rotatable=0;points=[[0,0.5],[1,0.5]];portConstraint=eastwest;" vertex="1" parent="207">
                    <mxGeometry y="26" width="80" height="26" as="geometry"/>
                </mxCell>
                <mxCell id="209" value=" " style="text;strokeColor=none;fillColor=none;align=left;verticalAlign=top;spacingLeft=4;spacingRight=4;overflow=hidden;rotatable=0;points=[[0,0.5],[1,0.5]];portConstraint=eastwest;" vertex="1" parent="207">
                    <mxGeometry y="52" width="80" height="30" as="geometry"/>
                </mxCell>
                <mxCell id="210" value="Maillon" style="swimlane;fontStyle=0;childLayout=stackLayout;horizontal=1;startSize=26;horizontalStack=0;resizeParent=1;resizeParentMax=0;resizeLast=0;collapsible=1;marginBottom=0;fillColor=#dae8fc;strokeColor=#6c8ebf;" vertex="1" parent="1">
                    <mxGeometry x="640" y="390" width="80" height="82" as="geometry"/>
                </mxCell>
                <mxCell id="211" value="valeur" style="text;strokeColor=none;fillColor=none;align=left;verticalAlign=top;spacingLeft=4;spacingRight=4;overflow=hidden;rotatable=0;points=[[0,0.5],[1,0.5]];portConstraint=eastwest;" vertex="1" parent="210">
                    <mxGeometry y="26" width="80" height="26" as="geometry"/>
                </mxCell>
                <mxCell id="212" value="suivant" style="text;strokeColor=none;fillColor=none;align=left;verticalAlign=top;spacingLeft=4;spacingRight=4;overflow=hidden;rotatable=0;points=[[0,0.5],[1,0.5]];portConstraint=eastwest;" vertex="1" parent="210">
                    <mxGeometry y="52" width="80" height="30" as="geometry"/>
                </mxCell>
                <mxCell id="213" style="edgeStyle=orthogonalEdgeStyle;html=1;exitX=1;exitY=0.5;exitDx=0;exitDy=0;entryX=0.5;entryY=0;entryDx=0;entryDy=0;startArrow=oval;startFill=1;startSize=9;endSize=8;fillColor=#dae8fc;strokeColor=#6c8ebf;" edge="1" parent="1">
                    <mxGeometry relative="1" as="geometry">
                        <mxPoint x="600" y="456.9699999999998" as="sourcePoint"/>
                        <mxPoint x="680" y="389.97000000000025" as="targetPoint"/>
                        <Array as="points">
                            <mxPoint x="620" y="456.97"/>
                            <mxPoint x="620" y="349.97"/>
                            <mxPoint x="680" y="349.97"/>
                        </Array>
                    </mxGeometry>
                </mxCell>
                <mxCell id="214" style="edgeStyle=orthogonalEdgeStyle;html=1;exitX=1;exitY=0.5;exitDx=0;exitDy=0;startArrow=oval;startFill=1;startSize=9;endSize=8;fillColor=#e1d5e7;strokeColor=#9673a6;strokeWidth=1;" edge="1" parent="1">
                    <mxGeometry relative="1" as="geometry">
                        <Array as="points">
                            <mxPoint x="320" y="307"/>
                            <mxPoint x="320" y="390"/>
                        </Array>
                        <mxPoint x="279.97" y="307" as="sourcePoint"/>
                        <mxPoint x="320" y="390" as="targetPoint"/>
                    </mxGeometry>
                </mxCell>
                <mxCell id="215" style="edgeStyle=orthogonalEdgeStyle;html=1;exitX=1;exitY=0.5;exitDx=0;exitDy=0;startArrow=oval;startFill=1;startSize=9;endSize=8;fillColor=#e1d5e7;strokeColor=#9673a6;strokeWidth=1;" edge="1" parent="1">
                    <mxGeometry relative="1" as="geometry">
                        <Array as="points">
                            <mxPoint x="680" y="280"/>
                        </Array>
                        <mxPoint x="280.0000000000001" y="280" as="sourcePoint"/>
                        <mxPoint x="680" y="390" as="targetPoint"/>
                    </mxGeometry>
                </mxCell>
                <mxCell id="216" value="" style="shape=ext;double=1;rounded=1;whiteSpace=wrap;html=1;strokeColor=#000000;strokeWidth=1;verticalAlign=middle;opacity=40;" vertex="1" parent="1">
                    <mxGeometry x="160" y="500" width="600" height="270" as="geometry"/>
                </mxCell>
                <mxCell id="217" value="Maillon" style="swimlane;fontStyle=0;childLayout=stackLayout;horizontal=1;startSize=26;horizontalStack=0;resizeParent=1;resizeParentMax=0;resizeLast=0;collapsible=1;marginBottom=0;fillColor=#dae8fc;strokeColor=#6c8ebf;" vertex="1" parent="1">
                    <mxGeometry x="280" y="670" width="80" height="82" as="geometry"/>
                </mxCell>
                <mxCell id="218" value="valeur" style="text;strokeColor=none;fillColor=none;align=left;verticalAlign=top;spacingLeft=4;spacingRight=4;overflow=hidden;rotatable=0;points=[[0,0.5],[1,0.5]];portConstraint=eastwest;" vertex="1" parent="217">
                    <mxGeometry y="26" width="80" height="26" as="geometry"/>
                </mxCell>
                <mxCell id="219" value="suivant" style="text;strokeColor=none;fillColor=none;align=left;verticalAlign=top;spacingLeft=4;spacingRight=4;overflow=hidden;rotatable=0;points=[[0,0.5],[1,0.5]];portConstraint=eastwest;" vertex="1" parent="217">
                    <mxGeometry y="52" width="80" height="30" as="geometry"/>
                </mxCell>
                <mxCell id="220" value="Maillon" style="swimlane;fontStyle=0;childLayout=stackLayout;horizontal=1;startSize=26;horizontalStack=0;resizeParent=1;resizeParentMax=0;resizeLast=0;collapsible=1;marginBottom=0;fillColor=#dae8fc;strokeColor=#6c8ebf;" vertex="1" parent="1">
                    <mxGeometry x="400" y="670" width="80" height="82" as="geometry"/>
                </mxCell>
                <mxCell id="221" value="valeur" style="text;strokeColor=none;fillColor=none;align=left;verticalAlign=top;spacingLeft=4;spacingRight=4;overflow=hidden;rotatable=0;points=[[0,0.5],[1,0.5]];portConstraint=eastwest;" vertex="1" parent="220">
                    <mxGeometry y="26" width="80" height="26" as="geometry"/>
                </mxCell>
                <mxCell id="222" value="suivant" style="text;strokeColor=none;fillColor=none;align=left;verticalAlign=top;spacingLeft=4;spacingRight=4;overflow=hidden;rotatable=0;points=[[0,0.5],[1,0.5]];portConstraint=eastwest;" vertex="1" parent="220">
                    <mxGeometry y="52" width="80" height="30" as="geometry"/>
                </mxCell>
                <mxCell id="223" style="edgeStyle=orthogonalEdgeStyle;html=1;exitX=1;exitY=0.5;exitDx=0;exitDy=0;entryX=0.5;entryY=0;entryDx=0;entryDy=0;startArrow=oval;startFill=1;startSize=9;endSize=8;endArrow=none;endFill=0;dashed=1;fillColor=#dae8fc;strokeColor=#6c8ebf;" edge="1" parent="1">
                    <mxGeometry relative="1" as="geometry">
                        <mxPoint x="480" y="737" as="sourcePoint"/>
                        <mxPoint x="560" y="670" as="targetPoint"/>
                        <Array as="points">
                            <mxPoint x="500" y="737"/>
                            <mxPoint x="500" y="630"/>
                            <mxPoint x="560" y="630"/>
                        </Array>
                    </mxGeometry>
                </mxCell>
                <mxCell id="224" style="edgeStyle=orthogonalEdgeStyle;html=1;exitX=1;exitY=0.5;exitDx=0;exitDy=0;entryX=0.5;entryY=0;entryDx=0;entryDy=0;startArrow=none;startFill=0;startSize=9;endSize=8;fillColor=#dae8fc;strokeColor=#6c8ebf;" edge="1" parent="1">
                    <mxGeometry relative="1" as="geometry">
                        <mxPoint x="360" y="737" as="sourcePoint"/>
                        <mxPoint x="440" y="670" as="targetPoint"/>
                        <Array as="points">
                            <mxPoint x="380" y="737"/>
                            <mxPoint x="380" y="630"/>
                            <mxPoint x="440" y="630"/>
                        </Array>
                    </mxGeometry>
                </mxCell>
                <mxCell id="225" value="File" style="swimlane;fontStyle=0;childLayout=stackLayout;horizontal=1;startSize=26;horizontalStack=0;resizeParent=1;resizeParentMax=0;resizeLast=0;collapsible=1;marginBottom=0;fillColor=#e1d5e7;strokeColor=#9673a6;" vertex="1" parent="1">
                    <mxGeometry x="200" y="520" width="80" height="78" as="geometry"/>
                </mxCell>
                <mxCell id="226" value="queue" style="text;strokeColor=none;fillColor=none;align=left;verticalAlign=top;spacingLeft=4;spacingRight=4;overflow=hidden;rotatable=0;points=[[0,0.5],[1,0.5]];portConstraint=eastwest;" vertex="1" parent="225">
                    <mxGeometry y="26" width="80" height="26" as="geometry"/>
                </mxCell>
                <mxCell id="227" value="tete" style="text;strokeColor=none;fillColor=none;align=left;verticalAlign=top;spacingLeft=4;spacingRight=4;overflow=hidden;rotatable=0;points=[[0,0.5],[1,0.5]];portConstraint=eastwest;" vertex="1" parent="225">
                    <mxGeometry y="52" width="80" height="26" as="geometry"/>
                </mxCell>
                <mxCell id="228" value="" style="swimlane;fontStyle=0;childLayout=stackLayout;horizontal=1;startSize=26;horizontalStack=0;resizeParent=1;resizeParentMax=0;resizeLast=0;collapsible=1;marginBottom=0;fillColor=#dae8fc;strokeColor=#6c8ebf;dashed=1;dashPattern=1 1;opacity=40;" vertex="1" parent="1">
                    <mxGeometry x="520" y="670" width="80" height="82" as="geometry"/>
                </mxCell>
                <mxCell id="229" value=" " style="text;strokeColor=none;fillColor=none;align=left;verticalAlign=top;spacingLeft=4;spacingRight=4;overflow=hidden;rotatable=0;points=[[0,0.5],[1,0.5]];portConstraint=eastwest;" vertex="1" parent="228">
                    <mxGeometry y="26" width="80" height="26" as="geometry"/>
                </mxCell>
                <mxCell id="230" value=" " style="text;strokeColor=none;fillColor=none;align=left;verticalAlign=top;spacingLeft=4;spacingRight=4;overflow=hidden;rotatable=0;points=[[0,0.5],[1,0.5]];portConstraint=eastwest;" vertex="1" parent="228">
                    <mxGeometry y="52" width="80" height="30" as="geometry"/>
                </mxCell>
                <mxCell id="231" value="Maillon" style="swimlane;fontStyle=0;childLayout=stackLayout;horizontal=1;startSize=26;horizontalStack=0;resizeParent=1;resizeParentMax=0;resizeLast=0;collapsible=1;marginBottom=0;fillColor=#dae8fc;strokeColor=#6c8ebf;" vertex="1" parent="1">
                    <mxGeometry x="640" y="670" width="80" height="82" as="geometry"/>
                </mxCell>
                <mxCell id="232" value="valeur" style="text;strokeColor=none;fillColor=none;align=left;verticalAlign=top;spacingLeft=4;spacingRight=4;overflow=hidden;rotatable=0;points=[[0,0.5],[1,0.5]];portConstraint=eastwest;" vertex="1" parent="231">
                    <mxGeometry y="26" width="80" height="26" as="geometry"/>
                </mxCell>
                <mxCell id="233" value="suivant" style="text;strokeColor=none;fillColor=none;align=left;verticalAlign=top;spacingLeft=4;spacingRight=4;overflow=hidden;rotatable=0;points=[[0,0.5],[1,0.5]];portConstraint=eastwest;" vertex="1" parent="231">
                    <mxGeometry y="52" width="80" height="30" as="geometry"/>
                </mxCell>
                <mxCell id="234" style="edgeStyle=orthogonalEdgeStyle;html=1;exitX=1;exitY=0.5;exitDx=0;exitDy=0;entryX=0.5;entryY=0;entryDx=0;entryDy=0;startArrow=oval;startFill=1;startSize=9;endSize=8;fillColor=#dae8fc;strokeColor=#6c8ebf;" edge="1" parent="1">
                    <mxGeometry relative="1" as="geometry">
                        <mxPoint x="600" y="736.9699999999998" as="sourcePoint"/>
                        <mxPoint x="680" y="669.9700000000003" as="targetPoint"/>
                        <Array as="points">
                            <mxPoint x="620" y="736.97"/>
                            <mxPoint x="620" y="629.97"/>
                            <mxPoint x="680" y="629.97"/>
                        </Array>
                    </mxGeometry>
                </mxCell>
                <mxCell id="235" style="edgeStyle=orthogonalEdgeStyle;html=1;exitX=1;exitY=0.5;exitDx=0;exitDy=0;startArrow=oval;startFill=1;startSize=9;endSize=8;fillColor=#e1d5e7;strokeColor=#9673a6;entryX=0.5;entryY=0;entryDx=0;entryDy=0;strokeWidth=4;" edge="1" parent="1" target="220">
                    <mxGeometry relative="1" as="geometry">
                        <Array as="points">
                            <mxPoint x="440" y="587"/>
                        </Array>
                        <mxPoint x="279.97" y="587" as="sourcePoint"/>
                        <mxPoint x="320.0000000000001" y="670" as="targetPoint"/>
                    </mxGeometry>
                </mxCell>
                <mxCell id="236" style="edgeStyle=orthogonalEdgeStyle;html=1;exitX=1;exitY=0.5;exitDx=0;exitDy=0;startArrow=oval;startFill=1;startSize=9;endSize=8;fillColor=#e1d5e7;strokeColor=#9673a6;strokeWidth=1;" edge="1" parent="1">
                    <mxGeometry relative="1" as="geometry">
                        <Array as="points">
                            <mxPoint x="680" y="560"/>
                        </Array>
                        <mxPoint x="280.0000000000001" y="560" as="sourcePoint"/>
                        <mxPoint x="680" y="670" as="targetPoint"/>
                    </mxGeometry>
                </mxCell>
                <mxCell id="237" value="tete" style="swimlane;fontStyle=0;childLayout=stackLayout;horizontal=1;startSize=26;horizontalStack=0;resizeParent=1;resizeParentMax=0;resizeLast=0;collapsible=1;marginBottom=0;fillColor=#f8cecc;strokeColor=#b85450;strokeWidth=4;" vertex="1" parent="1">
                    <mxGeometry x="180" y="390" width="50" height="52" as="geometry"/>
                </mxCell>
                <mxCell id="241" value="" style="rounded=0;whiteSpace=wrap;html=1;strokeColor=#b85450;fillColor=none;strokeWidth=3;" vertex="1" parent="1">
                    <mxGeometry x="270" y="413" width="60" height="27" as="geometry"/>
                </mxCell>
                <mxCell id="243" style="edgeStyle=none;html=1;entryX=0;entryY=0.5;entryDx=0;entryDy=0;strokeWidth=4;fillColor=#f8cecc;strokeColor=#b85450;sourcePerimeterSpacing=0;startArrow=oval;startFill=1;" edge="1" parent="1" target="241">
                    <mxGeometry relative="1" as="geometry">
                        <mxPoint x="230" y="427" as="sourcePoint"/>
                    </mxGeometry>
                </mxCell>
                <mxCell id="244" value="tete" style="swimlane;fontStyle=0;childLayout=stackLayout;horizontal=1;startSize=26;horizontalStack=0;resizeParent=1;resizeParentMax=0;resizeLast=0;collapsible=1;marginBottom=0;fillColor=#f8cecc;strokeColor=#b85450;strokeWidth=1;" vertex="1" parent="1">
                    <mxGeometry x="180" y="670" width="50" height="52" as="geometry"/>
                </mxCell>
                <mxCell id="245" value="" style="rounded=0;whiteSpace=wrap;html=1;strokeColor=#b85450;fillColor=none;strokeWidth=3;" vertex="1" parent="1">
                    <mxGeometry x="270" y="693" width="60" height="27" as="geometry"/>
                </mxCell>
                <mxCell id="246" style="edgeStyle=none;html=1;entryX=0;entryY=0.5;entryDx=0;entryDy=0;strokeWidth=1;fillColor=#f8cecc;strokeColor=#b85450;sourcePerimeterSpacing=0;startArrow=oval;startFill=1;" edge="1" parent="1" target="245">
                    <mxGeometry relative="1" as="geometry">
                        <mxPoint x="230" y="707" as="sourcePoint"/>
                    </mxGeometry>
                </mxCell>
            </root>
        </mxGraphModel>
    </diagram>
</mxfile>